<svg xmlns="http://www.w3.org/2000/svg" width="737.8876953125" height="427.694580078125" viewBox="-393.5507507324219 -345.4419250488281 737.8876953125 427.694580078125"><title>Neo4j Graph Visualization</title><desc>Created using Neo4j (http://www.neo4j.com/)</desc><g class="layer relationships"><g class="relationship" transform="translate(48.26632159659482 -291.87059928070823) rotate(183.23669312115027)"><path class="outline" fill="#A5ABB6" stroke="none" d="M 40 0.5 L 53.14740491788365 0.5 L 53.14740491788365 -0.5 L 40 -0.5 Z M 109.37396741788365 0.5 L 122.5213723357673 0.5 L 122.5213723357673 3.5 L 129.5213723357673 0 L 122.5213723357673 -3.5 L 122.5213723357673 -0.5 L 109.37396741788365 -0.5 Z"/><text text-anchor="middle" pointer-events="none" font-size="8px" fill="#000000" x="81.26068616788365" y="3" transform="rotate(180 81.26068616788365 0)" font-family="sans-serif">CO_AUTHOR</text></g><g class="relationship" transform="translate(-10.877406614464249 38.25266660629978) rotate(235.44771312385478)"><path class="outline" fill="#A5ABB6" stroke="none" d="M 40 0.5 L 51.92596482385156 0.5 L 51.92596482385156 -0.5 L 40 -0.5 Z M 108.15252732385156 0.5 L 120.07849214770312 0.5 L 120.07849214770312 3.5 L 127.07849214770312 0 L 120.07849214770312 -3.5 L 120.07849214770312 -0.5 L 108.15252732385156 -0.5 Z"/><text text-anchor="middle" pointer-events="none" font-size="8px" fill="#000000" x="80.03924607385156" y="3" transform="rotate(180 80.03924607385156 0)" font-family="sans-serif">CO_AUTHOR</text></g><g class="relationship" transform="translate(-105.63732351665007 -99.35467581059646) rotate(296.16177666132785)"><path class="outline" fill="#A5ABB6" stroke="none" d="M 40 0.5 L 41.96831025022381 0.5 L 41.96831025022381 -0.5 L 40 -0.5 Z M 94.19487275022381 0.5 L 96.16318300044762 0.5 L 96.16318300044762 3.5 L 103.16318300044762 0 L 96.16318300044762 -3.5 L 96.16318300044762 -0.5 L 94.19487275022381 -0.5 Z"/><text text-anchor="middle" pointer-events="none" font-size="8px" fill="#000000" x="68.08159150022381" y="3" font-family="sans-serif">CO_AUTH…</text></g><g class="relationship" transform="translate(-10.877406614464249 38.25266660629978) rotate(263.2196847582901)"><path class="outline" fill="#A5ABB6" stroke="none" d="M 40 0.5 L 102.37574328225566 0.5 L 102.37574328225566 -0.5 L 40 -0.5 Z M 158.60230578225566 0.5 L 220.9780490645113 0.5 L 220.9780490645113 3.5 L 227.9780490645113 0 L 220.9780490645113 -3.5 L 220.9780490645113 -0.5 L 158.60230578225566 -0.5 Z"/><text text-anchor="middle" pointer-events="none" font-size="8px" fill="#000000" x="130.48902453225566" y="3" transform="rotate(180 130.48902453225566 0)" font-family="sans-serif">CO_AUTHOR</text></g><g class="relationship" transform="translate(-42.515649251667625 -227.8511785054368) rotate(409.02881223137126)"><path class="outline" fill="#A5ABB6" stroke="none" d="M 40 0.5 L 104.8779927487659 0.5 L 104.8779927487659 -0.5 L 40 -0.5 Z M 161.1045552487659 0.5 L 225.9825479975318 0.5 L 225.9825479975318 3.5 L 232.9825479975318 0 L 225.9825479975318 -3.5 L 225.9825479975318 -0.5 L 161.1045552487659 -0.5 Z"/><text text-anchor="middle" pointer-events="none" font-size="8px" fill="#000000" x="132.9912739987659" y="3" font-family="sans-serif">CO_AUTHOR</text></g><g class="relationship" transform="translate(-10.877406614464249 38.25266660629978) rotate(337.8471749064138)"><path class="outline" fill="#A5ABB6" stroke="none" d="M 40 0.5 L 47.93420416909382 0.5 L 47.93420416909382 -0.5 L 40 -0.5 Z M 104.16076666909382 0.5 L 112.09497083818763 0.5 L 112.09497083818763 3.5 L 119.09497083818763 0 L 112.09497083818763 -3.5 L 112.09497083818763 -0.5 L 104.16076666909382 -0.5 Z"/><text text-anchor="middle" pointer-events="none" font-size="8px" fill="#000000" x="76.04748541909382" y="3" font-family="sans-serif">CO_AUTHOR</text></g><g class="relationship" transform="translate(-105.63732351665007 -99.35467581059646) rotate(377.77485903530624)"><path class="outline" fill="#A5ABB6" stroke="none" d="M 40 0.5 L 95.51052984482504 0.5 L 95.51052984482504 -0.5 L 40 -0.5 Z M 151.73709234482504 0.5 L 207.2476221896501 0.5 L 207.2476221896501 3.5 L 214.2476221896501 0 L 207.2476221896501 -3.5 L 207.2476221896501 -0.5 L 151.73709234482504 -0.5 Z"/><text text-anchor="middle" pointer-events="none" font-size="8px" fill="#000000" x="123.62381109482504" y="3" font-family="sans-serif">CO_AUTHOR</text></g><g class="relationship" transform="translate(136.47339127211288 -21.73860032642024) rotate(537.7999890459309)"><path class="outline" fill="#A5ABB6" stroke="none" d="M 40 0.5 L 206.8631691579812 0.5 L 206.8631691579812 -0.5 L 40 -0.5 Z M 263.0897316579812 0.5 L 429.9529008159624 0.5 L 429.9529008159624 3.5 L 436.9529008159624 0 L 429.9529008159624 -3.5 L 429.9529008159624 -0.5 L 263.0897316579812 -0.5 Z"/><text text-anchor="middle" pointer-events="none" font-size="8px" fill="#000000" x="234.9764504079812" y="3" transform="rotate(180 234.9764504079812 0)" font-family="sans-serif">CO_AUTHOR</text></g><g class="relationship" transform="translate(-42.515649251667625 -227.8511785054368) rotate(502.9809855288365)"><path class="outline" fill="#A5ABB6" stroke="none" d="M 40 0.5 L 154.75882485164706 0.5 L 154.75882485164706 -0.5 L 40 -0.5 Z M 210.98538735164706 0.5 L 325.7442122032941 0.5 L 325.7442122032941 3.5 L 332.7442122032941 0 L 325.7442122032941 -3.5 L 325.7442122032941 -0.5 L 210.98538735164706 -0.5 Z"/><text text-anchor="middle" pointer-events="none" font-size="8px" fill="#000000" x="182.87210610164706" y="3" transform="rotate(180 182.87210610164706 0)" font-family="sans-serif">CO_AUTHOR</text></g><g class="relationship" transform="translate(-105.63732351665007 -99.35467581059646) rotate(517.7515291023267)"><path class="outline" fill="#A5ABB6" stroke="none" d="M 40 0.5 L 95.06300532318433 0.5 L 95.06300532318433 -0.5 L 40 -0.5 Z M 151.2895678231843 0.5 L 206.35257314636866 0.5 L 206.35257314636866 3.5 L 213.35257314636866 0 L 206.35257314636866 -3.5 L 206.35257314636866 -0.5 L 151.2895678231843 -0.5 Z"/><text text-anchor="middle" pointer-events="none" font-size="8px" fill="#000000" x="123.17628657318433" y="3" transform="rotate(180 123.17628657318433 0)" font-family="sans-serif">CO_AUTHOR</text></g><g class="relationship" transform="translate(-10.877406614464249 38.25266660629978) rotate(187.2150695456956)"><path class="outline" fill="#A5ABB6" stroke="none" d="M 40 0.5 L 134.32594753263504 0.5 L 134.32594753263504 -0.5 L 40 -0.5 Z M 190.55251003263504 0.5 L 284.8784575652701 0.5 L 284.8784575652701 3.5 L 291.8784575652701 0 L 284.8784575652701 -3.5 L 284.8784575652701 -0.5 L 190.55251003263504 -0.5 Z"/><text text-anchor="middle" pointer-events="none" font-size="8px" fill="#000000" x="162.43922878263504" y="3" transform="rotate(180 162.43922878263504 0)" font-family="sans-serif">CO_AUTHOR</text></g><g class="relationship" transform="translate(-197.37780377230567 -229.40071359182048) rotate(501.4351624948217)"><path class="outline" fill="#A5ABB6" stroke="none" d="M 40 0.5 L 65.69604032240917 0.5 L 65.69604032240917 -0.5 L 40 -0.5 Z M 121.92260282240917 0.5 L 147.61864314481835 0.5 L 147.61864314481835 3.5 L 154.61864314481835 0 L 147.61864314481835 -3.5 L 147.61864314481835 -0.5 L 121.92260282240917 -0.5 Z"/><text text-anchor="middle" pointer-events="none" font-size="8px" fill="#000000" x="93.80932157240917" y="3" transform="rotate(180 93.80932157240917 0)" font-family="sans-serif">CO_AUTHOR</text></g><g class="relationship" transform="translate(140.84644465069744 -276.1659882090183) rotate(461.34061681461526)"><path class="outline" fill="#A5ABB6" stroke="none" d="M 40 0.5 L 40.8197522677704 0.5 L 40.8197522677704 -0.5 L 40 -0.5 Z M 93.0463147677704 0.5 L 93.8660670355408 0.5 L 93.8660670355408 3.5 L 100.8660670355408 0 L 93.8660670355408 -3.5 L 93.8660670355408 -0.5 L 93.0463147677704 -0.5 Z"/><text text-anchor="middle" pointer-events="none" font-size="8px" fill="#000000" x="66.9330335177704" y="3" transform="rotate(180 66.9330335177704 0)" font-family="sans-serif">CO_AUTH…</text></g><g class="relationship" transform="translate(113.1463651627478 -138.05025978382136) rotate(324.3526699871758)"><path class="outline" fill="#A5ABB6" stroke="none" d="M 40 0.5 L 83.56393864634474 0.5 L 83.56393864634474 -0.5 L 40 -0.5 Z M 139.79050114634475 0.5 L 183.35443979268948 0.5 L 183.35443979268948 3.5 L 190.35443979268948 0 L 183.35443979268948 -3.5 L 183.35443979268948 -0.5 L 139.79050114634475 -0.5 Z"/><text text-anchor="middle" pointer-events="none" font-size="8px" fill="#000000" x="111.67721989634474" y="3" font-family="sans-serif">CO_AUTHOR</text></g><g class="relationship" transform="translate(140.84644465069744 -276.1659882090183) rotate(361.38871845291754)"><path class="outline" fill="#A5ABB6" stroke="none" d="M 40 0.5 L 48.15537637207538 0.5 L 48.15537637207538 -0.5 L 40 -0.5 Z M 104.38193887207538 0.5 L 112.53731524415076 0.5 L 112.53731524415076 3.5 L 119.53731524415076 0 L 112.53731524415076 -3.5 L 112.53731524415076 -0.5 L 104.38193887207538 -0.5 Z"/><text text-anchor="middle" pointer-events="none" font-size="8px" fill="#000000" x="76.26865762207538" y="3" font-family="sans-serif">CO_AUTHOR</text></g><g class="relationship" transform="translate(300.3369007703349 -272.29954771917113) rotate(460.4192142560905)"><path class="outline" fill="#A5ABB6" stroke="none" d="M 40 0.5 L 93.01683452130291 0.5 L 93.01683452130291 -0.5 L 40 -0.5 Z M 149.2433970213029 0.5 L 202.26023154260582 0.5 L 202.26023154260582 3.5 L 209.26023154260582 0 L 202.26023154260582 -3.5 L 202.26023154260582 -0.5 L 149.2433970213029 -0.5 Z"/><text text-anchor="middle" pointer-events="none" font-size="8px" fill="#000000" x="121.13011577130291" y="3" transform="rotate(180 121.13011577130291 0)" font-family="sans-serif">CO_AUTHOR</text></g><g class="relationship" transform="translate(113.1463651627478 -138.05025978382136) rotate(397.96762428450256)"><path class="outline" fill="#A5ABB6" stroke="none" d="M 40 0.5 L 58.51834972142362 0.5 L 58.51834972142362 -0.5 L 40 -0.5 Z M 114.74491222142362 0.5 L 133.26326194284724 0.5 L 133.26326194284724 3.5 L 140.26326194284724 0 L 133.26326194284724 -3.5 L 133.26326194284724 -0.5 L 114.74491222142362 -0.5 Z"/><text text-anchor="middle" pointer-events="none" font-size="8px" fill="#000000" x="86.63163097142362" y="3" font-family="sans-serif">CO_AUTHOR</text></g><g class="relationship" transform="translate(140.84644465069744 -276.1659882090183) rotate(425.3233324446175)"><path class="outline" fill="#A5ABB6" stroke="none" d="M 40 0.5 L 105.40803755665979 0.5 L 105.40803755665979 -0.5 L 40 -0.5 Z M 161.6346000566598 0.5 L 227.04263761331958 0.5 L 227.04263761331958 3.5 L 234.04263761331958 0 L 227.04263761331958 -3.5 L 227.04263761331958 -0.5 L 161.6346000566598 -0.5 Z"/><text text-anchor="middle" pointer-events="none" font-size="8px" fill="#000000" x="133.5213188066598" y="3" font-family="sans-serif">CO_AUTHOR</text></g></g><g class="layer nodes"><g class="node" transform="translate(48.26632159659482,-291.87059928070823)"><circle class="outline" cx="0" cy="0" r="40" fill="#F16667" stroke="#eb2728" stroke-width="2px"/><text text-anchor="middle" pointer-events="none" font-family="sans-serif" dy="2.5" font-size="40" fill="#FFFFFF"/><text text-anchor="middle" pointer-events="none" font-family="sans-serif" dy="2.5" font-size="40" fill="#FFFFFF"/><text text-anchor="middle" pointer-events="none" y="0" font-size="10px" fill="#FFFFFF" font-family="sans-serif"> Alaa M.</text><text text-anchor="middle" pointer-events="none" y="10" font-size="10px" fill="#FFFFFF" font-family="sans-serif"> Al-Obaidi</text></g><g class="node" transform="translate(-120.98463202014943,-301.4419303492969)"><circle class="outline" cx="0" cy="0" r="40" fill="#F16667" stroke="#eb2728" stroke-width="2px"/><text text-anchor="middle" pointer-events="none" font-family="sans-serif" dy="2.5" font-size="40" fill="#FFFFFF"/><text text-anchor="middle" pointer-events="none" y="5" font-size="10px" fill="#FFFFFF" font-family="sans-serif"> Sai Peck Lee</text></g><g class="node" transform="translate(-10.877406614464249,38.25266660629978)"><circle class="outline" cx="0" cy="0" r="40" fill="#F16667" stroke="#eb2728" stroke-width="2px"/><text text-anchor="middle" pointer-events="none" font-family="sans-serif" dy="2.5" font-size="40" fill="#FFFFFF"/><text text-anchor="middle" pointer-events="none" y="5" font-size="10px" fill="#FFFFFF" font-family="sans-serif"> Thomas Weigert</text></g><g class="node" transform="translate(-105.63732351665007,-99.35467581059646)"><circle class="outline" cx="0" cy="0" r="40" fill="#F16667" stroke="#eb2728" stroke-width="2px"/><text text-anchor="middle" pointer-events="none" font-family="sans-serif" dy="2.5" font-size="40" fill="#FFFFFF"/><text text-anchor="middle" pointer-events="none" y="5" font-size="10px" fill="#FFFFFF" font-family="sans-serif"> David Garlan</text></g><g class="node" transform="translate(-42.515649251667625,-227.8511785054368)"><circle class="outline" cx="0" cy="0" r="40" fill="#F16667" stroke="#eb2728" stroke-width="2px"/><text text-anchor="middle" pointer-events="none" font-family="sans-serif" dy="2.5" font-size="40" fill="#FFFFFF"/><text text-anchor="middle" pointer-events="none" y="5" font-size="10px" fill="#FFFFFF" font-family="sans-serif"> John Knapman</text></g><g class="node" transform="translate(136.47339127211288,-21.73860032642024)"><circle class="outline" cx="0" cy="0" r="40" fill="#F16667" stroke="#eb2728" stroke-width="2px"/><text text-anchor="middle" pointer-events="none" font-family="sans-serif" dy="2.5" font-size="40" fill="#FFFFFF"/><text text-anchor="middle" pointer-events="none" font-family="sans-serif" dy="2.5" font-size="40" fill="#FFFFFF"/><text text-anchor="middle" pointer-events="none" y="0" font-size="10px" fill="#FFFFFF" font-family="sans-serif"> Birger</text><text text-anchor="middle" pointer-events="none" y="10" font-size="10px" fill="#FFFFFF" font-family="sans-serif"> Møller-Pedersen</text></g><g class="node" transform="translate(-340.12795188731053,-3.4293323073340645)"><circle class="outline" cx="0" cy="0" r="40" fill="#F16667" stroke="#eb2728" stroke-width="2px"/><text text-anchor="middle" pointer-events="none" font-family="sans-serif" dy="2.5" font-size="40" fill="#FFFFFF"/><text text-anchor="middle" pointer-events="none" y="5" font-size="10px" fill="#FFFFFF" font-family="sans-serif"> Bran Selic</text></g><g class="node" transform="translate(-197.37780377230567,-229.40071359182048)"><circle class="outline" cx="0" cy="0" r="40" fill="#F16667" stroke="#eb2728" stroke-width="2px"/><text text-anchor="middle" pointer-events="none" font-family="sans-serif" dy="2.5" font-size="40" fill="#FFFFFF"/><text text-anchor="middle" pointer-events="none" y="5" font-size="10px" fill="#FFFFFF" font-family="sans-serif"> Caroline Brun</text></g><g class="node" transform="translate(-349.55074381129475,-108.07547887364493)"><circle class="outline" cx="0" cy="0" r="40" fill="#F16667" stroke="#eb2728" stroke-width="2px"/><text text-anchor="middle" pointer-events="none" font-family="sans-serif" dy="2.5" font-size="40" fill="#FFFFFF"/><text text-anchor="middle" pointer-events="none" y="5" font-size="10px" fill="#FFFFFF" font-family="sans-serif"> Caroline Hagège</text></g><g class="node" transform="translate(140.84644465069744,-276.1659882090183)"><circle class="outline" cx="0" cy="0" r="40" fill="#F16667" stroke="#eb2728" stroke-width="2px"/><text text-anchor="middle" pointer-events="none" font-family="sans-serif" dy="2.5" font-size="40" fill="#FFFFFF"/><text text-anchor="middle" pointer-events="none" y="5" font-size="10px" fill="#FFFFFF" font-family="sans-serif"> John Thornton</text></g><g class="node" transform="translate(113.1463651627478,-138.05025978382136)"><circle class="outline" cx="0" cy="0" r="40" fill="#F16667" stroke="#eb2728" stroke-width="2px"/><text text-anchor="middle" pointer-events="none" font-family="sans-serif" dy="2.5" font-size="40" fill="#FFFFFF"/><text text-anchor="middle" pointer-events="none" y="5" font-size="10px" fill="#FFFFFF" font-family="sans-serif"> Andrew Srbic</text></g><g class="node" transform="translate(300.3369007703349,-272.29954771917113)"><circle class="outline" cx="0" cy="0" r="40" fill="#F16667" stroke="#eb2728" stroke-width="2px"/><text text-anchor="middle" pointer-events="none" font-family="sans-serif" dy="2.5" font-size="40" fill="#FFFFFF"/><text text-anchor="middle" pointer-events="none" y="5" font-size="10px" fill="#FFFFFF" font-family="sans-serif"> Linda Main</text></g><g class="node" transform="translate(255.2584426933645,-27.149398532848423)"><circle class="outline" cx="0" cy="0" r="40" fill="#F16667" stroke="#eb2728" stroke-width="2px"/><text text-anchor="middle" pointer-events="none" font-family="sans-serif" dy="2.5" font-size="40" fill="#FFFFFF"/><text text-anchor="middle" pointer-events="none" y="5" font-size="10px" fill="#FFFFFF" font-family="sans-serif"> Mahsa Chitsaz</text></g></g></svg>