<svg xmlns="http://www.w3.org/2000/svg" width="308.2286682128906" height="304.3931579589844" viewBox="-48.81985855102539 -57.6451530456543 308.2286682128906 304.3931579589844"><title>Neo4j Graph Visualization</title><desc>Created using Neo4j (http://www.neo4j.com/)</desc><g class="layer relationships"><g class="relationship" transform="translate(105.76066523990512 93.47454657095459) rotate(441.1016196477523)"><path class="outline" fill="#A5ABB6" stroke="none" d="M 25 0.5 L 45.50114062951881 0.5 L 45.50114062951881 -0.5 L 25 -0.5 Z M 73.2862968795188 0.5 L 93.78743750903762 0.5 L 93.78743750903762 3.5 L 100.78743750903762 0 L 93.78743750903762 -3.5 L 93.78743750903762 -0.5 L 73.2862968795188 -0.5 Z"/><text text-anchor="middle" pointer-events="none" font-size="8px" fill="#000000" x="59.39371875451881" y="3" font-family="sans-serif">SOLD</text></g><g class="relationship" transform="translate(105.76066523990512 93.47454657095459) rotate(404.345825002619)"><path class="outline" fill="#A5ABB6" stroke="none" d="M 25 0.5 L 45.80194633019132 0.5 L 45.80194633019132 -0.5 L 25 -0.5 Z M 73.58710258019133 0.5 L 94.38904891038264 0.5 L 94.38904891038264 3.5 L 101.38904891038264 0 L 94.38904891038264 -3.5 L 94.38904891038264 -0.5 L 73.58710258019133 -0.5 Z"/><text text-anchor="middle" pointer-events="none" font-size="8px" fill="#000000" x="59.69452445519132" y="3" font-family="sans-serif">SOLD</text></g><g class="relationship" transform="translate(105.76066523990512 93.47454657095459) rotate(367.21549641252153)"><path class="outline" fill="#A5ABB6" stroke="none" d="M 25 0.5 L 45.428995812948436 0.5 L 45.428995812948436 -0.5 L 25 -0.5 Z M 73.21415206294844 0.5 L 93.64314787589687 0.5 L 93.64314787589687 3.5 L 100.64314787589687 0 L 93.64314787589687 -3.5 L 93.64314787589687 -0.5 L 73.21415206294844 -0.5 Z"/><text text-anchor="middle" pointer-events="none" font-size="8px" fill="#000000" x="59.321573937948436" y="3" font-family="sans-serif">SOLD</text></g><g class="relationship" transform="translate(105.76066523990512 93.47454657095459) rotate(329.7409419776076)"><path class="outline" fill="#A5ABB6" stroke="none" d="M 25 0.5 L 45.43286180902662 0.5 L 45.43286180902662 -0.5 L 25 -0.5 Z M 73.21801805902662 0.5 L 93.65087986805324 0.5 L 93.65087986805324 3.5 L 100.65087986805324 0 L 93.65087986805324 -3.5 L 93.65087986805324 -0.5 L 73.21801805902662 -0.5 Z"/><text text-anchor="middle" pointer-events="none" font-size="8px" fill="#000000" x="59.32543993402662" y="3" font-family="sans-serif">SOLD</text></g><g class="relationship" transform="translate(105.76066523990512 93.47454657095459) rotate(294.04825977713267)"><path class="outline" fill="#A5ABB6" stroke="none" d="M 25 0.5 L 45.418747313199496 0.5 L 45.418747313199496 -0.5 L 25 -0.5 Z M 73.2039035631995 0.5 L 93.62265087639899 0.5 L 93.62265087639899 3.5 L 100.62265087639899 0 L 93.62265087639899 -3.5 L 93.62265087639899 -0.5 L 73.2039035631995 -0.5 Z"/><text text-anchor="middle" pointer-events="none" font-size="8px" fill="#000000" x="59.311325438199496" y="3" font-family="sans-serif">SOLD</text></g><g class="relationship" transform="translate(105.76066523990512 93.47454657095459) rotate(256.5507029365597)"><path class="outline" fill="#A5ABB6" stroke="none" d="M 25 0.5 L 45.38898601766451 0.5 L 45.38898601766451 -0.5 L 25 -0.5 Z M 73.17414226766451 0.5 L 93.56312828532901 0.5 L 93.56312828532901 3.5 L 100.56312828532901 0 L 93.56312828532901 -3.5 L 93.56312828532901 -0.5 L 73.17414226766451 -0.5 Z"/><text text-anchor="middle" pointer-events="none" font-size="8px" fill="#000000" x="59.28156414266451" y="3" transform="rotate(180 59.28156414266451 0)" font-family="sans-serif">SOLD</text></g><g class="relationship" transform="translate(105.76066523990512 93.47454657095459) rotate(219.38446175005345)"><path class="outline" fill="#A5ABB6" stroke="none" d="M 25 0.5 L 45.75377661415353 0.5 L 45.75377661415353 -0.5 L 25 -0.5 Z M 73.53893286415354 0.5 L 94.29270947830706 0.5 L 94.29270947830706 3.5 L 101.29270947830706 0 L 94.29270947830706 -3.5 L 94.29270947830706 -0.5 L 73.53893286415354 -0.5 Z"/><text text-anchor="middle" pointer-events="none" font-size="8px" fill="#000000" x="59.64635473915353" y="3" transform="rotate(180 59.64635473915353 0)" font-family="sans-serif">SOLD</text></g><g class="relationship" transform="translate(105.76066523990512 93.47454657095459) rotate(182.59634174767376)"><path class="outline" fill="#A5ABB6" stroke="none" d="M 25 0.5 L 45.46220666509353 0.5 L 45.46220666509353 -0.5 L 25 -0.5 Z M 73.24736291509353 0.5 L 93.70956958018706 0.5 L 93.70956958018706 3.5 L 100.70956958018706 0 L 93.70956958018706 -3.5 L 93.70956958018706 -0.5 L 73.24736291509353 -0.5 Z"/><text text-anchor="middle" pointer-events="none" font-size="8px" fill="#000000" x="59.35478479009353" y="3" transform="rotate(180 59.35478479009353 0)" font-family="sans-serif">SOLD</text></g><g class="relationship" transform="translate(105.76066523990512 93.47454657095459) rotate(507.9778902473145)"><path class="outline" fill="#A5ABB6" stroke="none" d="M 25 0.5 L 45.620240697481265 0.5 L 45.620240697481265 -0.5 L 25 -0.5 Z M 73.40539694748126 0.5 L 94.02563764496253 0.5 L 94.02563764496253 3.5 L 101.02563764496253 0 L 94.02563764496253 -3.5 L 94.02563764496253 -0.5 L 73.40539694748126 -0.5 Z"/><text text-anchor="middle" pointer-events="none" font-size="8px" fill="#000000" x="59.512818822481265" y="3" transform="rotate(180 59.512818822481265 0)" font-family="sans-serif">SOLD</text></g><g class="relationship" transform="translate(105.76066523990512 93.47454657095459) rotate(475.70486950486867)"><path class="outline" fill="#A5ABB6" stroke="none" d="M 25 0.5 L 45.63818287001491 0.5 L 45.63818287001491 -0.5 L 25 -0.5 Z M 73.4233391200149 0.5 L 94.06152199002982 0.5 L 94.06152199002982 3.5 L 101.06152199002982 0 L 94.06152199002982 -3.5 L 94.06152199002982 -0.5 L 73.4233391200149 -0.5 Z"/><text text-anchor="middle" pointer-events="none" font-size="8px" fill="#000000" x="59.53076099501491" y="3" transform="rotate(180 59.53076099501491 0)" font-family="sans-serif">SOLD</text></g></g><g class="layer nodes"><g class="node" transform="translate(125.21777531019441,217.7480365147181)"><circle class="outline" cx="0" cy="0" r="25" fill="#57C7E3" stroke="#23b3d7" stroke-width="2px"/><text text-anchor="middle" pointer-events="none" font-family="sans-serif" dy="1.5625" font-size="25" fill="#2A2C34"/><text text-anchor="middle" pointer-events="none" x="0" y="5" font-size="10px" fill="#2A2C34" font-family="sans-serif"> 10886</text></g><g class="node" transform="translate(105.76066523990512,93.47454657095459)"><circle class="outline" cx="0" cy="0" r="25" fill="#8DCC93" stroke="#5db665" stroke-width="2px"/><text text-anchor="middle" pointer-events="none" font-family="sans-serif" dy="1.5625" font-size="25" fill="#2A2C34"/><text text-anchor="middle" pointer-events="none" font-family="sans-serif" dy="1.5625" font-size="25" fill="#2A2C34"/><text text-anchor="middle" pointer-events="none" x="0" y="0" font-size="10px" fill="#2A2C34" font-family="sans-serif"> Sales</text><text text-anchor="middle" pointer-events="none" x="0" y="10" font-size="10px" fill="#2A2C34" font-family="sans-serif"> Repres…</text></g><g class="node" transform="translate(196.1457605099669,181.81890823310567)"><circle class="outline" cx="0" cy="0" r="25" fill="#57C7E3" stroke="#23b3d7" stroke-width="2px"/><text text-anchor="middle" pointer-events="none" font-family="sans-serif" dy="1.5625" font-size="25" fill="#2A2C34"/><text text-anchor="middle" pointer-events="none" x="0" y="5" font-size="10px" fill="#2A2C34" font-family="sans-serif"> 10387</text></g><g class="node" transform="translate(230.4088157495249,109.25552191139731)"><circle class="outline" cx="0" cy="0" r="25" fill="#57C7E3" stroke="#23b3d7" stroke-width="2px"/><text text-anchor="middle" pointer-events="none" font-family="sans-serif" dy="1.5625" font-size="25" fill="#2A2C34"/><text text-anchor="middle" pointer-events="none" x="0" y="5" font-size="10px" fill="#2A2C34" font-family="sans-serif"> 10894</text></g><g class="node" transform="translate(214.29234798660121,30.15774428446465)"><circle class="outline" cx="0" cy="0" r="25" fill="#57C7E3" stroke="#23b3d7" stroke-width="2px"/><text text-anchor="middle" pointer-events="none" font-family="sans-serif" dy="1.5625" font-size="25" fill="#2A2C34"/><text text-anchor="middle" pointer-events="none" x="0" y="5" font-size="10px" fill="#2A2C34" font-family="sans-serif"> 10800</text></g><g class="node" transform="translate(156.9526455323762,-21.244377617467272)"><circle class="outline" cx="0" cy="0" r="25" fill="#57C7E3" stroke="#23b3d7" stroke-width="2px"/><text text-anchor="middle" pointer-events="none" font-family="sans-serif" dy="1.5625" font-size="25" fill="#2A2C34"/><text text-anchor="middle" pointer-events="none" x="0" y="5" font-size="10px" fill="#2A2C34" font-family="sans-serif"> 10304</text></g><g class="node" transform="translate(76.55659139673217,-28.645153951772254)"><circle class="outline" cx="0" cy="0" r="25" fill="#57C7E3" stroke="#23b3d7" stroke-width="2px"/><text text-anchor="middle" pointer-events="none" font-family="sans-serif" dy="1.5625" font-size="25" fill="#2A2C34"/><text text-anchor="middle" pointer-events="none" x="0" y="5" font-size="10px" fill="#2A2C34" font-family="sans-serif"> 10292</text></g><g class="node" transform="translate(8.148312748337675,13.339179170323966)"><circle class="outline" cx="0" cy="0" r="25" fill="#57C7E3" stroke="#23b3d7" stroke-width="2px"/><text text-anchor="middle" pointer-events="none" font-family="sans-serif" dy="1.5625" font-size="25" fill="#2A2C34"/><text text-anchor="middle" pointer-events="none" x="0" y="5" font-size="10px" fill="#2A2C34" font-family="sans-serif"> 10340</text></g><g class="node" transform="translate(-19.819858956072235,87.78000298086438)"><circle class="outline" cx="0" cy="0" r="25" fill="#57C7E3" stroke="#23b3d7" stroke-width="2px"/><text text-anchor="middle" pointer-events="none" font-family="sans-serif" dy="1.5625" font-size="25" fill="#2A2C34"/><text text-anchor="middle" pointer-events="none" x="0" y="5" font-size="10px" fill="#2A2C34" font-family="sans-serif"> 10910</text></g><g class="node" transform="translate(-1.0893579585462574,160.29919686042334)"><circle class="outline" cx="0" cy="0" r="25" fill="#57C7E3" stroke="#23b3d7" stroke-width="2px"/><text text-anchor="middle" pointer-events="none" font-family="sans-serif" dy="1.5625" font-size="25" fill="#2A2C34"/><text text-anchor="middle" pointer-events="none" x="0" y="5" font-size="10px" fill="#2A2C34" font-family="sans-serif"> 10400</text></g><g class="node" transform="translate(51.0832872241488,207.06104074946535)"><circle class="outline" cx="0" cy="0" r="25" fill="#57C7E3" stroke="#23b3d7" stroke-width="2px"/><text text-anchor="middle" pointer-events="none" font-family="sans-serif" dy="1.5625" font-size="25" fill="#2A2C34"/><text text-anchor="middle" pointer-events="none" x="0" y="5" font-size="10px" fill="#2A2C34" font-family="sans-serif"> 10976</text></g></g></svg>