<svg xmlns="http://www.w3.org/2000/svg" width="480.9974365234375" height="299.768798828125" viewBox="-185.6825714111328 -58.63761901855469 480.9974365234375 299.768798828125"><title>Neo4j Graph Visualization</title><desc>Created using Neo4j (http://www.neo4j.com/)</desc><g class="layer relationships"><g class="relationship" transform="translate(196.5615666475236 212.1312096608973) rotate(232.36999699389315)"><path class="outline" fill="#A5ABB6" stroke="none" d="M 25 0.5 L 42.240292187142856 0.5 L 42.240292187142856 -0.5 L 25 -0.5 Z M 102.18951093714286 0.5 L 119.42980312428571 0.5 L 119.42980312428571 3.5 L 126.42980312428571 0 L 119.42980312428571 -3.5 L 119.42980312428571 -0.5 L 102.18951093714286 -0.5 Z"/><text text-anchor="middle" pointer-events="none" font-size="8px" fill="#000000" x="72.21490156214286" y="3" transform="rotate(180 72.21490156214286 0)" font-family="sans-serif">REPORTS_TO</text></g><g class="relationship" transform="translate(266.31485695434196 104.06102318452066) rotate(184.18092337841392)"><path class="outline" fill="#A5ABB6" stroke="none" d="M 25 0.5 L 47.8469356861475 0.5 L 47.8469356861475 -0.5 L 25 -0.5 Z M 107.7961544361475 0.5 L 130.643090122295 0.5 L 130.643090122295 3.5 L 137.643090122295 0 L 130.643090122295 -3.5 L 130.643090122295 -0.5 L 107.7961544361475 -0.5 Z"/><text text-anchor="middle" pointer-events="none" font-size="8px" fill="#000000" x="77.8215450611475" y="3" transform="rotate(180 77.8215450611475 0)" font-family="sans-serif">REPORTS_TO</text></g><g class="relationship" transform="translate(180.27008888589194 -29.63761763012013) rotate(482.01042029540423)"><path class="outline" fill="#A5ABB6" stroke="none" d="M 25 0.5 L 38.3696716182605 0.5 L 38.3696716182605 -0.5 L 25 -0.5 Z M 98.3188903682605 0.5 L 111.688561986521 0.5 L 111.688561986521 3.5 L 118.688561986521 0 L 111.688561986521 -3.5 L 111.688561986521 -0.5 L 98.3188903682605 -0.5 Z"/><text text-anchor="middle" pointer-events="none" font-size="8px" fill="#000000" x="68.3442809932605" y="3" transform="rotate(180 68.3442809932605 0)" font-family="sans-serif">REPORTS_TO</text></g><g class="relationship" transform="translate(-10.500159448304919 46.15242118133199) rotate(381.89143816846456)"><path class="outline" fill="#A5ABB6" stroke="none" d="M 25 0.5 L 28.280828478458233 0.5 L 28.280828478458233 -0.5 L 25 -0.5 Z M 88.23004722845823 0.5 L 91.51087570691647 0.5 L 91.51087570691647 3.5 L 98.51087570691647 0 L 91.51087570691647 -3.5 L 91.51087570691647 -0.5 L 88.23004722845823 -0.5 Z"/><text text-anchor="middle" pointer-events="none" font-size="8px" fill="#000000" x="58.25543785345823" y="3" font-family="sans-serif">REPORTS_TO</text></g><g class="relationship" transform="translate(13.56871036443168 198.397996184497) rotate(310.4491354160023)"><path class="outline" fill="#A5ABB6" stroke="none" d="M 25 0.5 L 36.300117416613375 0.5 L 36.300117416613375 -0.5 L 25 -0.5 Z M 96.24933616661338 0.5 L 107.54945358322675 0.5 L 107.54945358322675 3.5 L 114.54945358322675 0 L 107.54945358322675 -3.5 L 107.54945358322675 -0.5 L 96.24933616661338 -0.5 Z"/><text text-anchor="middle" pointer-events="none" font-size="8px" fill="#000000" x="66.27472679161338" y="3" font-family="sans-serif">REPORTS_TO</text></g><g class="relationship" transform="translate(-156.68257261086745 7.524244321056894) rotate(374.8018748153402)"><path class="outline" fill="#A5ABB6" stroke="none" d="M 25 0.5 L 42.12538064745111 0.5 L 42.12538064745111 -0.5 L 25 -0.5 Z M 102.07459939745111 0.5 L 119.19998004490222 0.5 L 119.19998004490222 3.5 L 126.19998004490222 0 L 119.19998004490222 -3.5 L 119.19998004490222 -0.5 L 102.07459939745111 -0.5 Z"/><text text-anchor="middle" pointer-events="none" font-size="8px" fill="#000000" x="72.09999002245111" y="3" font-family="sans-serif">REPORTS_TO</text></g></g><g class="layer nodes"><g class="node" transform="translate(196.5615666475236,212.1312096608973)"><circle class="outline" cx="0" cy="0" r="25" fill="#8DCC93" stroke="#5db665" stroke-width="2px"/><text text-anchor="middle" pointer-events="none" font-family="sans-serif" dy="1.5625" font-size="25" fill="#2A2C34"/><text text-anchor="middle" pointer-events="none" font-family="sans-serif" dy="1.5625" font-size="25" fill="#2A2C34"/><text text-anchor="middle" pointer-events="none" x="0" y="0" font-size="10px" fill="#2A2C34" font-family="sans-serif"> Sales</text><text text-anchor="middle" pointer-events="none" x="0" y="10" font-size="10px" fill="#2A2C34" font-family="sans-serif"> Repres…</text></g><g class="node" transform="translate(104.10459155128744,92.20334371509676)"><circle class="outline" cx="0" cy="0" r="25" fill="#8DCC93" stroke="#5db665" stroke-width="2px"/><text text-anchor="middle" pointer-events="none" font-family="sans-serif" dy="1.5625" font-size="25" fill="#2A2C34"/><text text-anchor="middle" pointer-events="none" font-family="sans-serif" dy="1.5625" font-size="25" fill="#2A2C34"/><text text-anchor="middle" pointer-events="none" font-family="sans-serif" dy="1.5625" font-size="25" fill="#2A2C34"/><text text-anchor="middle" pointer-events="none" x="0" y="-5" font-size="10px" fill="#2A2C34" font-family="sans-serif"> Vice</text><text text-anchor="middle" pointer-events="none" x="0" y="5" font-size="10px" fill="#2A2C34" font-family="sans-serif"> President,</text><text text-anchor="middle" pointer-events="none" x="0" y="15" font-size="10px" fill="#2A2C34" font-family="sans-serif"> Sales</text></g><g class="node" transform="translate(266.31485695434196,104.06102318452066)"><circle class="outline" cx="0" cy="0" r="25" fill="#8DCC93" stroke="#5db665" stroke-width="2px"/><text text-anchor="middle" pointer-events="none" font-family="sans-serif" dy="1.5625" font-size="25" fill="#2A2C34"/><text text-anchor="middle" pointer-events="none" font-family="sans-serif" dy="1.5625" font-size="25" fill="#2A2C34"/><text text-anchor="middle" pointer-events="none" x="0" y="0" font-size="10px" fill="#2A2C34" font-family="sans-serif"> Sales</text><text text-anchor="middle" pointer-events="none" x="0" y="10" font-size="10px" fill="#2A2C34" font-family="sans-serif"> Repres…</text></g><g class="node" transform="translate(180.27008888589194,-29.63761763012013)"><circle class="outline" cx="0" cy="0" r="25" fill="#8DCC93" stroke="#5db665" stroke-width="2px"/><text text-anchor="middle" pointer-events="none" font-family="sans-serif" dy="1.5625" font-size="25" fill="#2A2C34"/><text text-anchor="middle" pointer-events="none" font-family="sans-serif" dy="1.5625" font-size="25" fill="#2A2C34"/><text text-anchor="middle" pointer-events="none" x="0" y="0" font-size="10px" fill="#2A2C34" font-family="sans-serif"> Sales</text><text text-anchor="middle" pointer-events="none" x="0" y="10" font-size="10px" fill="#2A2C34" font-family="sans-serif"> Repres…</text></g><g class="node" transform="translate(-10.500159448304919,46.15242118133199)"><circle class="outline" cx="0" cy="0" r="25" fill="#8DCC93" stroke="#5db665" stroke-width="2px"/><text text-anchor="middle" pointer-events="none" font-family="sans-serif" dy="1.5625" font-size="25" fill="#2A2C34"/><text text-anchor="middle" pointer-events="none" font-family="sans-serif" dy="1.5625" font-size="25" fill="#2A2C34"/><text text-anchor="middle" pointer-events="none" x="0" y="0" font-size="10px" fill="#2A2C34" font-family="sans-serif"> Sales</text><text text-anchor="middle" pointer-events="none" x="0" y="10" font-size="10px" fill="#2A2C34" font-family="sans-serif"> Manager</text></g><g class="node" transform="translate(13.56871036443168,198.397996184497)"><circle class="outline" cx="0" cy="0" r="25" fill="#8DCC93" stroke="#5db665" stroke-width="2px"/><text text-anchor="middle" pointer-events="none" font-family="sans-serif" dy="1.5625" font-size="25" fill="#2A2C34"/><text text-anchor="middle" pointer-events="none" font-family="sans-serif" dy="1.5625" font-size="25" fill="#2A2C34"/><text text-anchor="middle" pointer-events="none" font-family="sans-serif" dy="1.5625" font-size="25" fill="#2A2C34"/><text text-anchor="middle" pointer-events="none" x="0" y="-5" font-size="10px" fill="#2A2C34" font-family="sans-serif"> Inside</text><text text-anchor="middle" pointer-events="none" x="0" y="5" font-size="10px" fill="#2A2C34" font-family="sans-serif"> Sales</text><text text-anchor="middle" pointer-events="none" x="0" y="15" font-size="10px" fill="#2A2C34" font-family="sans-serif"> Coordi…</text></g><g class="node" transform="translate(-156.68257261086745,7.524244321056894)"><circle class="outline" cx="0" cy="0" r="25" fill="#8DCC93" stroke="#5db665" stroke-width="2px"/><text text-anchor="middle" pointer-events="none" font-family="sans-serif" dy="1.5625" font-size="25" fill="#2A2C34"/><text text-anchor="middle" pointer-events="none" font-family="sans-serif" dy="1.5625" font-size="25" fill="#2A2C34"/><text text-anchor="middle" pointer-events="none" x="0" y="0" font-size="10px" fill="#2A2C34" font-family="sans-serif"> Sales</text><text text-anchor="middle" pointer-events="none" x="0" y="10" font-size="10px" fill="#2A2C34" font-family="sans-serif"> Repres…</text></g></g></svg>