<svg xmlns="http://www.w3.org/2000/svg" xmlns:xlink="http://www.w3.org/1999/xlink" width="715" height="204" viewbox="0 0 715 204"><path transform="translate(255.71513417474517 -101.0394592522482) scale(1) translate(-82.25469918939925 263.3182933946855) rotate(-19.731160237263087)" d="M 27 0 L 124.4419750333396 0" fill="none" stroke="#A5ABB6" stroke-width="1"></path><polygon transform="translate(255.71513417474517 -101.0394592522482) scale(1) translate(-82.25469918939925 263.3182933946855) rotate(-19.731160237263087) translate(133.8919750333396 0) rotate(0)" points="-9.45,0 -10.5,3.5 0,0 -10.5,-3.5" fill="undefined" stroke="none" stroke-width="1"></polygon><rect transform="translate(255.71513417474517 -101.0394592522482) scale(1) translate(-10.97951220038911 237.7543408407219) rotate(-19.731160237263087) translate(0 -7) translate(0 0) translate(-15.61572265625 0)" x="0" y="0" width="31.2314453125" height="14" rx="2" ry="2" fill="#ffffff" stroke="none"></rect><text xml:space="preserve" transform="translate(255.71513417474517 -101.0394592522482) scale(1) translate(-10.97951220038911 237.7543408407219) rotate(-19.731160237263087) translate(0 -7) translate(0 0) translate(-15.61572265625 0)" x="2" y="9.78564453125" font-family="sans-serif" font-size="10" font-weight="normal" text-anchor="left" fill="#000000">SOLD</text><path transform="translate(255.71513417474517 -101.0394592522482) scale(1) translate(-82.25469918939925 263.3182933946855) rotate(-126.5880157500913)" d="M 27 0 L 124.4419750333396 0" fill="none" stroke="#A5ABB6" stroke-width="1"></path><polygon transform="translate(255.71513417474517 -101.0394592522482) scale(1) translate(-82.25469918939925 263.3182933946855) rotate(-126.5880157500913) translate(133.8919750333396 0) rotate(0)" points="-9.45,0 -10.5,3.5 0,0 -10.5,-3.5" fill="undefined" stroke="none" stroke-width="1"></polygon><rect transform="translate(255.71513417474517 -101.0394592522482) scale(1) translate(-127.38871937149031 202.5187196075095) rotate(53.4119842499087) translate(0 -7) translate(0 0) translate(-35.71826171875 0)" x="0" y="0" width="71.4365234375" height="14" rx="2" ry="2" fill="#ffffff" stroke="none"></rect><text xml:space="preserve" transform="translate(255.71513417474517 -101.0394592522482) scale(1) translate(-127.38871937149031 202.5187196075095) rotate(53.4119842499087) translate(0 -7) translate(0 0) translate(-35.71826171875 0)" x="2" y="9.78564453125" font-family="sans-serif" font-size="10" font-weight="normal" text-anchor="left" fill="#000000">REPORTS_TO</text><path transform="translate(255.71513417474517 -101.0394592522482) scale(1) translate(69.19083766401099 209) rotate(0)" d="M 27 0 L 124.4419750333396 0" fill="none" stroke="#A5ABB6" stroke-width="1"></path><polygon transform="translate(255.71513417474517 -101.0394592522482) scale(1) translate(69.19083766401099 209) rotate(0) translate(133.8919750333396 0) rotate(0)" points="-9.45,0 -10.5,3.5 0,0 -10.5,-3.5" fill="undefined" stroke="none" stroke-width="1"></polygon><rect transform="translate(255.71513417474517 -101.0394592522482) scale(1) translate(144.91182518068078 209) rotate(0) translate(0 -7) translate(0 0) translate(-27.46630859375 0)" x="0" y="0" width="54.9326171875" height="14" rx="2" ry="2" fill="#ffffff" stroke="none"></rect><text xml:space="preserve" transform="translate(255.71513417474517 -101.0394592522482) scale(1) translate(144.91182518068078 209) rotate(0) translate(0 -7) translate(0 0) translate(-27.46630859375 0)" x="2" y="9.78564453125" font-family="sans-serif" font-size="10" font-weight="normal" text-anchor="left" fill="#000000">CONTAINS</text><path transform="translate(255.71513417474517 -101.0394592522482) scale(1) translate(230.0828126973506 209) rotate(-27.73190098584773)" d="M 27 0 L 124.4419750333396 0" fill="none" stroke="#A5ABB6" stroke-width="1"></path><polygon transform="translate(255.71513417474517 -101.0394592522482) scale(1) translate(230.0828126973506 209) rotate(-27.73190098584773) translate(133.8919750333396 0) rotate(0)" points="-9.45,0 -10.5,3.5 0,0 -10.5,-3.5" fill="undefined" stroke="none" stroke-width="1"></polygon><rect transform="translate(255.71513417474517 -101.0394592522482) scale(1) translate(297.1060843782321 173.7643787667876) rotate(-27.73190098584773) translate(0 -7) translate(0 0) translate(-24.6025390625 0)" x="0" y="0" width="49.205078125" height="14" rx="2" ry="2" fill="#ffffff" stroke="none"></rect><text xml:space="preserve" transform="translate(255.71513417474517 -101.0394592522482) scale(1) translate(297.1060843782321 173.7643787667876) rotate(-27.73190098584773) translate(0 -7) translate(0 0) translate(-24.6025390625 0)" x="2" y="9.78564453125" font-family="sans-serif" font-size="10" font-weight="normal" text-anchor="left" fill="#000000">PART_OF</text><path transform="translate(255.71513417474517 -101.0394592522482) scale(1) translate(381.5283495507608 263.3182933946855) rotate(-160.26883976273695)" d="M 27 0 L 124.4419750333396 0" fill="none" stroke="#A5ABB6" stroke-width="1"></path><polygon transform="translate(255.71513417474517 -101.0394592522482) scale(1) translate(381.5283495507608 263.3182933946855) rotate(-160.26883976273695) translate(133.8919750333396 0) rotate(0)" points="-9.45,0 -10.5,3.5 0,0 -10.5,-3.5" fill="undefined" stroke="none" stroke-width="1"></polygon><rect transform="translate(255.71513417474517 -101.0394592522482) scale(1) translate(310.2531625617507 237.7543408407219) rotate(19.73116023726307) translate(0 -7) translate(0 0) translate(-26.45556640625 0)" x="0" y="0" width="52.9111328125" height="14" rx="2" ry="2" fill="#ffffff" stroke="none"></rect><text xml:space="preserve" transform="translate(255.71513417474517 -101.0394592522482) scale(1) translate(310.2531625617507 237.7543408407219) rotate(19.73116023726307) translate(0 -7) translate(0 0) translate(-26.45556640625 0)" x="2" y="9.78564453125" font-family="sans-serif" font-size="10" font-weight="normal" text-anchor="left" fill="#000000">SUPPLIES</text><circle transform="translate(255.71513417474517 -101.0394592522482) scale(1)" cx="-82.25469918939925" cy="263.3182933946855" r="26" fill="#4C8EDA" stroke="#194d33" strokewidth="2"></circle><rect transform="translate(255.71513417474517 -101.0394592522482) scale(1) translate(-82.25469918939925 263.3182933946855) translate(1.6532731788489269e-15 27) translate(0 0) translate(-29.23388671875 0)" x="0" y="0" width="58.4677734375" height="14" rx="7" ry="7" fill="#0062b1" stroke="none"></rect><text xml:space="preserve" transform="translate(255.71513417474517 -101.0394592522482) scale(1) translate(-82.25469918939925 263.3182933946855) translate(1.6532731788489269e-15 27) translate(0 0) translate(-29.23388671875 0)" x="7" y="9.78564453125" font-family="sans-serif" font-size="10" font-weight="normal" text-anchor="undefined" fill="#ffffff">Employee</text><circle transform="translate(255.71513417474517 -101.0394592522482) scale(1)" cx="69.19083766401099" cy="209" r="26" fill="#68bc00" stroke="#194d33" strokewidth="2"></circle><rect transform="translate(255.71513417474517 -101.0394592522482) scale(1) translate(69.19083766401099 209) translate(1.6532731788489269e-15 -41) translate(0 0) translate(-19.78076171875 0)" x="0" y="0" width="39.5615234375" height="14" rx="7" ry="7" fill="#68bc00" stroke="none"></rect><text xml:space="preserve" transform="translate(255.71513417474517 -101.0394592522482) scale(1) translate(69.19083766401099 209) translate(1.6532731788489269e-15 -41) translate(0 0) translate(-19.78076171875 0)" x="7" y="9.78564453125" font-family="sans-serif" font-size="10" font-weight="normal" text-anchor="undefined" fill="#ffffff">Order</text><circle transform="translate(255.71513417474517 -101.0394592522482) scale(1)" cx="-178.1554776452084" cy="134.13134234428497" r="26" fill="#4C8EDA" stroke="#194d33" strokewidth="2"></circle><rect transform="translate(255.71513417474517 -101.0394592522482) scale(1) translate(-178.1554776452084 134.13134234428497) translate(-19.09188309203678 -33.09188309203678) translate(0 0) translate(-58.4677734375 0)" x="0" y="0" width="58.4677734375" height="14" rx="7" ry="7" fill="#0062b1" stroke="none"></rect><text xml:space="preserve" transform="translate(255.71513417474517 -101.0394592522482) scale(1) translate(-178.1554776452084 134.13134234428497) translate(-19.09188309203678 -33.09188309203678) translate(0 0) translate(-58.4677734375 0)" x="7" y="9.78564453125" font-family="sans-serif" font-size="10" font-weight="normal" text-anchor="undefined" fill="#ffffff">Employee</text><circle transform="translate(255.71513417474517 -101.0394592522482) scale(1)" cx="230.0828126973506" cy="209" r="26" fill="#fe9200" stroke="#c45100" strokewidth="2"></circle><rect transform="translate(255.71513417474517 -101.0394592522482) scale(1) translate(230.0828126973506 209) translate(1.6532731788489269e-15 27) translate(0 0) translate(-24.2314453125 0)" x="0" y="0" width="48.462890625" height="14" rx="7" ry="7" fill="#fe9200" stroke="none"></rect><text xml:space="preserve" transform="translate(255.71513417474517 -101.0394592522482) scale(1) translate(230.0828126973506 209) translate(1.6532731788489269e-15 27) translate(0 0) translate(-24.2314453125 0)" x="7" y="9.78564453125" font-family="sans-serif" font-size="10" font-weight="normal" text-anchor="undefined" fill="#ffffff">Product</text><circle transform="translate(255.71513417474517 -101.0394592522482) scale(1)" cx="372.49387873844205" cy="134.13134234428497" r="26" fill="#f44e3b" stroke="#9f0500" strokewidth="2"></circle><rect transform="translate(255.71513417474517 -101.0394592522482) scale(1) translate(372.49387873844205 134.13134234428497) translate(19.091883092036785 -33.09188309203678) translate(0 0) translate(0 0)" x="0" y="0" width="54.576171875" height="14" rx="7" ry="7" fill="#f44e3b" stroke="none"></rect><text xml:space="preserve" transform="translate(255.71513417474517 -101.0394592522482) scale(1) translate(372.49387873844205 134.13134234428497) translate(19.091883092036785 -33.09188309203678) translate(0 0) translate(0 0)" x="7" y="9.78564453125" font-family="sans-serif" font-size="10" font-weight="normal" text-anchor="undefined" fill="#ffffff">Category</text><circle transform="translate(255.71513417474517 -101.0394592522482) scale(1)" cx="381.5283495507608" cy="263.3182933946855" r="26" fill="#aea1ff" stroke="#653294" strokewidth="2"></circle><rect transform="translate(255.71513417474517 -101.0394592522482) scale(1) translate(381.5283495507608 263.3182933946855) translate(27 -7) translate(0 0) translate(0 0)" x="0" y="0" width="50.689453125" height="14" rx="7" ry="7" fill="#aea1ff" stroke="none"></rect><text xml:space="preserve" transform="translate(255.71513417474517 -101.0394592522482) scale(1) translate(381.5283495507608 263.3182933946855) translate(27 -7) translate(0 0) translate(0 0)" x="7" y="9.78564453125" font-family="sans-serif" font-size="10" font-weight="normal" text-anchor="undefined" fill="#ffffff">Supplier</text></svg>