<svg xmlns="http://www.w3.org/2000/svg" width="340.043212890625" height="289.1730651855469" viewBox="-89.21800231933594 -41.612831115722656 340.043212890625 289.1730651855469"><title>Neo4j Graph Visualization</title><desc>Created using Neo4j (http://www.neo4j.com/)</desc><g class="layer relationships"><g class="relationship" transform="translate(147.01746396601055 218.5602095607125) rotate(250.4144053252669)"><path class="outline" fill="#A5ABB6" stroke="none" d="M 25 0.5 L 26.238153952859946 0.5 L 26.238153952859946 -0.5 L 25 -0.5 Z M 78.76940395285995 0.5 L 80.00755790571989 0.5 L 80.00755790571989 3.5 L 87.00755790571989 0 L 80.00755790571989 -3.5 L 80.00755790571989 -0.5 L 78.76940395285995 -0.5 Z"/><text text-anchor="middle" pointer-events="none" font-size="8px" fill="#000000" x="52.503778952859946" y="3" transform="rotate(180 52.503778952859946 0)" font-family="sans-serif">REPORTS…</text></g><g class="relationship" transform="translate(221.82520040873916 118.58144058718239) rotate(182.8270572703915)"><path class="outline" fill="#A5ABB6" stroke="none" d="M 25 0.5 L 26.479986874067166 0.5 L 26.479986874067166 -0.5 L 25 -0.5 Z M 79.01123687406717 0.5 L 80.49122374813433 0.5 L 80.49122374813433 3.5 L 87.49122374813433 0 L 80.49122374813433 -3.5 L 80.49122374813433 -0.5 L 79.01123687406717 -0.5 Z"/><text text-anchor="middle" pointer-events="none" font-size="8px" fill="#000000" x="52.745611874067166" y="3" transform="rotate(180 52.745611874067166 0)" font-family="sans-serif">REPORTS…</text></g><g class="relationship" transform="translate(163.2658686599949 14.344124998379685) rotate(478.5946063355925)"><path class="outline" fill="#A5ABB6" stroke="none" d="M 25 0.5 L 26.433654925706506 0.5 L 26.433654925706506 -0.5 L 25 -0.5 Z M 78.9649049257065 0.5 L 80.39855985141301 0.5 L 80.39855985141301 3.5 L 87.39855985141301 0 L 80.39855985141301 -3.5 L 80.39855985141301 -0.5 L 78.9649049257065 -0.5 Z"/><text text-anchor="middle" pointer-events="none" font-size="8px" fill="#000000" x="52.699279925706506" y="3" transform="rotate(180 52.699279925706506 0)" font-family="sans-serif">REPORTS…</text></g><g class="relationship" transform="translate(32.50017029420807 35.66414264328235) rotate(405.1478819124356)"><path class="outline" fill="#A5ABB6" stroke="none" d="M 25 0.5 L 27.469878704073757 0.5 L 27.469878704073757 -0.5 L 25 -0.5 Z M 74.66519120407375 0.5 L 77.13506990814751 0.5 L 77.13506990814751 3.5 L 84.13506990814751 0 L 77.13506990814751 -3.5 L 77.13506990814751 -0.5 L 74.66519120407375 -0.5 Z"/><text text-anchor="middle" pointer-events="none" font-size="8px" fill="#000000" x="51.06753495407376" y="3" font-family="sans-serif">REPORT…</text></g><g class="relationship" transform="translate(27.08888047571622 188.4789832821904) rotate(317.5164214779482)"><path class="outline" fill="#A5ABB6" stroke="none" d="M 25 0.5 L 26.08878140413885 0.5 L 26.08878140413885 -0.5 L 25 -0.5 Z M 78.62003140413884 0.5 L 79.7088128082777 0.5 L 79.7088128082777 3.5 L 86.7088128082777 0 L 79.7088128082777 -3.5 L 79.7088128082777 -0.5 L 78.62003140413884 -0.5 Z"/><text text-anchor="middle" pointer-events="none" font-size="8px" fill="#000000" x="52.35440640413885" y="3" font-family="sans-serif">REPORTS…</text></g><g class="relationship" transform="translate(-60.217997823558484 -12.61283026701464) rotate(387.50532344671717)"><path class="outline" fill="#A5ABB6" stroke="none" d="M 25 0.5 L 25.169266398305908 0.5 L 25.169266398305908 -0.5 L 25 -0.5 Z M 72.36457889830591 0.5 L 72.53384529661182 0.5 L 72.53384529661182 3.5 L 79.53384529661182 0 L 72.53384529661182 -3.5 L 72.53384529661182 -0.5 L 72.36457889830591 -0.5 Z"/><text text-anchor="middle" pointer-events="none" font-size="8px" fill="#000000" x="48.76692264830591" y="3" font-family="sans-serif">REPORT…</text></g></g><g class="layer nodes"><g class="node" transform="translate(147.01746396601055,218.5602095607125)"><circle class="outline" cx="0" cy="0" r="25" fill="#8DCC93" stroke="#5db665" stroke-width="2px"/><text text-anchor="middle" pointer-events="none" font-family="sans-serif" dy="1.5625" font-size="25" fill="#2A2C34"/><text text-anchor="middle" pointer-events="none" font-family="sans-serif" dy="1.5625" font-size="25" fill="#2A2C34"/><text text-anchor="middle" pointer-events="none" x="0" y="0" font-size="10px" fill="#2A2C34" font-family="sans-serif"> Sales</text><text text-anchor="middle" pointer-events="none" x="0" y="10" font-size="10px" fill="#2A2C34" font-family="sans-serif"> Repres…</text></g><g class="node" transform="translate(109.47088329104082,113.03321155725756)"><circle class="outline" cx="0" cy="0" r="25" fill="#8DCC93" stroke="#5db665" stroke-width="2px"/><text text-anchor="middle" pointer-events="none" font-family="sans-serif" dy="1.5625" font-size="25" fill="#2A2C34"/><text text-anchor="middle" pointer-events="none" font-family="sans-serif" dy="1.5625" font-size="25" fill="#2A2C34"/><text text-anchor="middle" pointer-events="none" font-family="sans-serif" dy="1.5625" font-size="25" fill="#2A2C34"/><text text-anchor="middle" pointer-events="none" x="0" y="-5" font-size="10px" fill="#2A2C34" font-family="sans-serif"> Vice</text><text text-anchor="middle" pointer-events="none" x="0" y="5" font-size="10px" fill="#2A2C34" font-family="sans-serif"> President,</text><text text-anchor="middle" pointer-events="none" x="0" y="15" font-size="10px" fill="#2A2C34" font-family="sans-serif"> Sales</text></g><g class="node" transform="translate(221.82520040873916,118.58144058718239)"><circle class="outline" cx="0" cy="0" r="25" fill="#8DCC93" stroke="#5db665" stroke-width="2px"/><text text-anchor="middle" pointer-events="none" font-family="sans-serif" dy="1.5625" font-size="25" fill="#2A2C34"/><text text-anchor="middle" pointer-events="none" font-family="sans-serif" dy="1.5625" font-size="25" fill="#2A2C34"/><text text-anchor="middle" pointer-events="none" x="0" y="0" font-size="10px" fill="#2A2C34" font-family="sans-serif"> Sales</text><text text-anchor="middle" pointer-events="none" x="0" y="10" font-size="10px" fill="#2A2C34" font-family="sans-serif"> Repres…</text></g><g class="node" transform="translate(163.2658686599949,14.344124998379685)"><circle class="outline" cx="0" cy="0" r="25" fill="#8DCC93" stroke="#5db665" stroke-width="2px"/><text text-anchor="middle" pointer-events="none" font-family="sans-serif" dy="1.5625" font-size="25" fill="#2A2C34"/><text text-anchor="middle" pointer-events="none" font-family="sans-serif" dy="1.5625" font-size="25" fill="#2A2C34"/><text text-anchor="middle" pointer-events="none" x="0" y="0" font-size="10px" fill="#2A2C34" font-family="sans-serif"> Sales</text><text text-anchor="middle" pointer-events="none" x="0" y="10" font-size="10px" fill="#2A2C34" font-family="sans-serif"> Repres…</text></g><g class="node" transform="translate(32.50017029420807,35.66414264328235)"><circle class="outline" cx="0" cy="0" r="25" fill="#8DCC93" stroke="#5db665" stroke-width="2px"/><text text-anchor="middle" pointer-events="none" font-family="sans-serif" dy="1.5625" font-size="25" fill="#2A2C34"/><text text-anchor="middle" pointer-events="none" font-family="sans-serif" dy="1.5625" font-size="25" fill="#2A2C34"/><text text-anchor="middle" pointer-events="none" x="0" y="0" font-size="10px" fill="#2A2C34" font-family="sans-serif"> Sales</text><text text-anchor="middle" pointer-events="none" x="0" y="10" font-size="10px" fill="#2A2C34" font-family="sans-serif"> Manager</text></g><g class="node" transform="translate(27.08888047571622,188.4789832821904)"><circle class="outline" cx="0" cy="0" r="25" fill="#8DCC93" stroke="#5db665" stroke-width="2px"/><text text-anchor="middle" pointer-events="none" font-family="sans-serif" dy="1.5625" font-size="25" fill="#2A2C34"/><text text-anchor="middle" pointer-events="none" font-family="sans-serif" dy="1.5625" font-size="25" fill="#2A2C34"/><text text-anchor="middle" pointer-events="none" font-family="sans-serif" dy="1.5625" font-size="25" fill="#2A2C34"/><text text-anchor="middle" pointer-events="none" x="0" y="-5" font-size="10px" fill="#2A2C34" font-family="sans-serif"> Inside</text><text text-anchor="middle" pointer-events="none" x="0" y="5" font-size="10px" fill="#2A2C34" font-family="sans-serif"> Sales</text><text text-anchor="middle" pointer-events="none" x="0" y="15" font-size="10px" fill="#2A2C34" font-family="sans-serif"> Coordi…</text></g><g class="node" transform="translate(-60.217997823558484,-12.61283026701464)"><circle class="outline" cx="0" cy="0" r="25" fill="#8DCC93" stroke="#5db665" stroke-width="2px"/><text text-anchor="middle" pointer-events="none" font-family="sans-serif" dy="1.5625" font-size="25" fill="#2A2C34"/><text text-anchor="middle" pointer-events="none" font-family="sans-serif" dy="1.5625" font-size="25" fill="#2A2C34"/><text text-anchor="middle" pointer-events="none" x="0" y="0" font-size="10px" fill="#2A2C34" font-family="sans-serif"> Sales</text><text text-anchor="middle" pointer-events="none" x="0" y="10" font-size="10px" fill="#2A2C34" font-family="sans-serif"> Repres…</text></g></g></svg>